<svg width="720" height="720" xmlns="http://www.w3.org/2000/svg" xmlns:xlink="http://www.w3.org/1999/xlink" overflow="hidden"><g><rect x="0" y="0" width="720" height="720" fill="#FFFFFF"/><path d="M586.889 317.455 563 150" stroke="#000000" stroke-width="2" stroke-miterlimit="8" fill="none" fill-rule="evenodd"/><path d="M0 0 174.532 155.977" stroke="#000000" stroke-width="2" stroke-miterlimit="8" fill="none" fill-rule="evenodd" transform="matrix(1 0 0 -1 304 575.977)"/><path d="M292.049 565.046 301.588 574.585 311.127 565.046 314.942 568.861 305.403 578.4 314.942 587.939 311.127 591.754 301.588 582.215 292.049 591.754 288.234 587.939 297.773 578.4 288.234 568.861Z" fill-rule="evenodd"/><path d="M299 578.5C299 577.119 300.119 576 301.5 576 302.881 576 304 577.119 304 578.5 304 579.881 302.881 581 301.5 581 300.119 581 299 579.881 299 578.5Z" fill-rule="evenodd"/><path d="M577.054 306.599 586.593 316.138 596.132 306.599 599.948 310.414 590.409 319.953 599.948 329.492 596.132 333.308 586.593 323.769 577.054 333.308 573.239 329.492 582.778 319.953 573.239 310.414Z" fill-rule="evenodd"/><path d="M584 320C584 318.343 585.119 317 586.5 317 587.881 317 589 318.343 589 320 589 321.657 587.881 323 586.5 323 585.119 323 584 321.657 584 320Z" fill-rule="evenodd"/><path d="M0 0 156.616 79.3466" stroke="#000000" stroke-width="2" stroke-miterlimit="8" fill="none" fill-rule="evenodd" transform="matrix(-1 0 0 1 649.616 499)"/><path d="M642.874 485.699 652.413 495.238 661.952 485.699 665.768 489.514 656.229 499.053 665.768 508.592 661.952 512.408 652.413 502.869 642.874 512.408 639.059 508.592 648.598 499.053 639.059 489.514Z" fill-rule="evenodd"/><path d="M650 499C650 497.343 651.119 496 652.5 496 653.881 496 655 497.343 655 499 655 500.657 653.881 502 652.5 502 651.119 502 650 500.657 650 499Z" fill-rule="evenodd"/><g><g><g><path d="M478.553 559.536 458.586 569.759 450.65 565.854 470.265 556.169C470.705 555.945 471.233 555.945 471.695 556.169Z"/><path d="M491.328 565.854 471.011 575.919 463.403 572.17 462.303 571.611 482.292 561.39 483.392 561.947Z"/><path d="M469.383 578.82 469.361 600 449.902 589.845C449.352 589.555 449 588.974 449 588.349L449 568.755 457.246 572.817 457.246 579.96C457.246 580.875 457.994 581.634 458.896 581.634 459.798 581.634 460.546 580.875 460.546 579.96L460.546 574.469 461.646 575.004Z"/><path d="M492.978 568.776 472.683 578.797 472.661 599.978 493 589.357Z"/></g></g></g><text font-family="Arial,Arial_MSFontService,sans-serif" font-weight="700" font-size="26.6667" transform="translate(436.229 543)">5</text><text font-family="Arial,Arial_MSFontService,sans-serif" font-weight="400" font-size="26.6667" transform="translate(458.395 543)">[3</text><text fill="#7F7F7F" font-family="Arial,Arial_MSFontService,sans-serif" font-weight="400" font-size="26.6667" transform="translate(480.562 543)">X</text><text font-family="Arial,Arial_MSFontService,sans-serif" font-weight="400" font-size="26.6667" transform="translate(498.395 543)">]</text><path d="M642.874 153.272 652.413 162.811 661.952 153.272 665.768 157.088 656.229 166.627 665.768 176.166 661.952 179.981 652.413 170.442 642.874 179.981 639.059 176.166 648.598 166.627 639.059 157.088Z" fill-rule="evenodd"/><path d="M650 167C650 165.343 651.119 164 652.5 164 653.881 164 655 165.343 655 167 655 168.657 653.881 170 652.5 170 651.119 170 650 168.657 650 167Z" fill-rule="evenodd"/><g><g><g><path d="M421.553 166.536 401.586 176.759 393.65 172.854 413.265 163.169C413.705 162.945 414.233 162.945 414.695 163.169Z"/><path d="M434.328 172.854 414.011 182.919 406.403 179.17 405.303 178.611 425.292 168.39 426.392 168.947Z"/><path d="M412.383 185.82 412.361 207 392.902 196.845C392.352 196.555 392 195.974 392 195.349L392 175.755 400.246 179.817 400.246 186.96C400.246 187.875 400.994 188.634 401.896 188.634 402.798 188.634 403.546 187.875 403.546 186.96L403.546 181.469 404.646 182.004Z"/><path d="M435.978 175.777 415.683 185.798 415.661 206.978 436 196.357Z"/></g></g></g><text font-family="Arial,Arial_MSFontService,sans-serif" font-weight="700" font-size="26.6667" transform="translate(379.015 149)">2</text><text font-family="Arial,Arial_MSFontService,sans-serif" font-weight="400" font-size="26.6667" transform="translate(401.182 149)">[2</text><text fill="#7F7F7F" font-family="Arial,Arial_MSFontService,sans-serif" font-weight="400" font-size="26.6667" transform="translate(423.349 149)">X</text><text font-family="Arial,Arial_MSFontService,sans-serif" font-weight="400" font-size="26.6667" transform="translate(441.182 149)">]</text><path d="M569 92C569 96.9706 565.194 101 560.5 101 555.806 101 552 96.9706 552 92 552 87.0294 555.806 83 560.5 83 565.194 83 569 87.0294 569 92Z" fill-rule="evenodd"/><path d="M573.121 125.782 571.139 105.932C570.917 103.689 569.052 102 566.809 102L553.327 102C551.079 102 549.215 103.689 548.993 105.927L547.011 125.782C546.95 126.397 547.15 127.004 547.564 127.466 547.973 127.92 548.561 128.182 549.176 128.182L551.558 128.182 553.344 146.073C553.567 148.307 555.435 150 557.683 150L562.453 150C564.701 150 566.565 148.307 566.787 146.073L568.573 128.182 570.956 128.182C571.574 128.182 572.158 127.92 572.572 127.466 572.986 127.008 573.186 126.397 573.121 125.782Z" fill-rule="evenodd"/><text font-family="Arial,Arial_MSFontService,sans-serif" font-weight="700" font-size="26.6667" transform="translate(525.522 69)">4</text><text font-family="Arial,Arial_MSFontService,sans-serif" font-weight="400" font-size="26.6667" transform="translate(547.689 69)">[2</text><text fill="#7F7F7F" font-family="Arial,Arial_MSFontService,sans-serif" font-weight="400" font-size="26.6667" transform="translate(569.855 69)">A</text><text font-family="Arial,Arial_MSFontService,sans-serif" font-weight="400" font-size="26.6667" transform="translate(587.689 69)">]</text><path d="M489 362.5C489 367.194 485.194 371 480.5 371 475.806 371 472 367.194 472 362.5 472 357.806 475.806 354 480.5 354 485.194 354 489 357.806 489 362.5Z" fill-rule="evenodd"/><path d="M493.116 396.286 491.21 376.85C490.997 374.654 489.204 373 487.047 373L474.084 373C471.922 373 470.13 374.654 469.916 376.845L468.01 396.286C467.952 396.889 468.144 397.483 468.542 397.936 468.936 398.38 469.501 398.636 470.092 398.636L472.383 398.636 474.1 416.155C474.314 418.342 476.111 420 478.272 420L482.858 420C485.02 420 486.812 418.342 487.026 416.155L488.743 398.636 491.034 398.636C491.629 398.636 492.19 398.38 492.588 397.936 492.986 397.487 493.179 396.889 493.116 396.286Z" fill-rule="evenodd"/><text font-family="Arial,Arial_MSFontService,sans-serif" font-weight="700" font-size="26.6667" transform="translate(446.322 338)">6</text><text font-family="Arial,Arial_MSFontService,sans-serif" font-weight="400" font-size="26.6667" transform="translate(468.489 338)">[3</text><text fill="#7F7F7F" font-family="Arial,Arial_MSFontService,sans-serif" font-weight="400" font-size="26.6667" transform="translate(490.655 338)">A</text><text font-family="Arial,Arial_MSFontService,sans-serif" font-weight="400" font-size="26.6667" transform="translate(508.489 338)">]</text><path d="M185.054 539.246 194.593 548.785 204.132 539.246 207.948 543.061 198.409 552.6 207.948 562.139 204.132 565.954 194.593 556.415 185.054 565.954 181.239 562.139 190.778 552.6 181.239 543.061Z" fill-rule="evenodd"/><path d="M192 552.5C192 551.119 193.119 550 194.5 550 195.881 550 197 551.119 197 552.5 197 553.881 195.881 555 194.5 555 193.119 555 192 553.881 192 552.5Z" fill-rule="evenodd"/><path d="M91 224C91 228.971 86.9706 233 82 233 77.0294 233 73 228.971 73 224 73 219.029 77.0294 215 82 215 86.9706 215 91 219.029 91 224Z" fill-rule="evenodd"/><path d="M95.1208 257.782 93.1387 237.932C92.9166 235.689 91.0522 234 88.8089 234L75.327 234C73.0793 234 71.2149 235.689 70.9928 237.927L69.0108 257.782C68.9497 258.397 69.1501 259.004 69.5639 259.466 69.9734 259.92 70.5615 260.182 71.1757 260.182L73.5584 260.182 75.3444 278.073C75.5665 280.307 77.4353 282 79.683 282L84.4528 282C86.7006 282 88.5649 280.307 88.787 278.073L90.5731 260.182 92.9558 260.182C93.5743 260.182 94.1581 259.92 94.5719 259.466 94.9857 259.008 95.1861 258.397 95.1208 257.782Z" fill-rule="evenodd"/><text font-family="Arial,Arial_MSFontService,sans-serif" font-weight="700" font-size="26.6667" transform="translate(47.1219 201)">1</text><text font-family="Arial,Arial_MSFontService,sans-serif" font-weight="400" font-size="26.6667" transform="translate(69.2886 201)">[1</text><text fill="#7F7F7F" font-family="Arial,Arial_MSFontService,sans-serif" font-weight="400" font-size="26.6667" transform="translate(91.4553 201)">A</text><text font-family="Arial,Arial_MSFontService,sans-serif" font-weight="400" font-size="26.6667" transform="translate(109.289 201)">]</text><path d="M334.654 387.666 344.193 397.205 353.732 387.666 357.548 391.481 348.009 401.02 357.548 410.559 353.732 414.374 344.193 404.835 334.654 414.374 330.839 410.559 340.378 401.02 330.839 391.481Z" fill-rule="evenodd"/><path d="M341 401C341 399.343 342.343 398 344 398 345.657 398 347 399.343 347 401 347 402.657 345.657 404 344 404 342.343 404 341 402.657 341 401Z" fill-rule="evenodd"/><path d="M223 290.5C223 295.194 219.194 299 214.5 299 209.806 299 206 295.194 206 290.5 206 285.806 209.806 282 214.5 282 219.194 282 223 285.806 223 290.5Z" fill-rule="evenodd"/><path d="M228.121 324.782 226.139 304.932C225.917 302.689 224.052 301 221.809 301L208.327 301C206.079 301 204.215 302.689 203.993 304.927L202.011 324.782C201.95 325.397 202.15 326.004 202.564 326.466 202.973 326.92 203.561 327.182 204.176 327.182L206.558 327.182 208.344 345.073C208.567 347.307 210.435 349 212.683 349L217.453 349C219.701 349 221.565 347.307 221.787 345.073L223.573 327.182 225.956 327.182C226.574 327.182 227.158 326.92 227.572 326.466 227.986 326.008 228.186 325.397 228.121 324.782Z" fill-rule="evenodd"/><text font-family="Arial,Arial_MSFontService,sans-serif" font-weight="700" font-size="26.6667" transform="translate(179.922 268)">3</text><text font-family="Arial,Arial_MSFontService,sans-serif" font-weight="400" font-size="26.6667" transform="translate(202.089 268)">[2</text><text fill="#7F7F7F" font-family="Arial,Arial_MSFontService,sans-serif" font-weight="400" font-size="26.6667" transform="translate(224.255 268)">A</text><text font-family="Arial,Arial_MSFontService,sans-serif" font-weight="400" font-size="26.6667" transform="translate(242.089 268)">]</text><path d="M193 99.1474C193 95.2 196.2 92 200.147 92L287.853 92C291.8 92 295 95.2 295 99.1474L295 145.853C295 149.8 291.8 153 287.853 153L200.147 153C196.2 153 193 149.8 193 145.853Z" stroke="#000000" stroke-width="6" stroke-miterlimit="8" fill="#FFFFFF" fill-rule="evenodd"/><rect x="139" y="145" width="164" height="29"/><path d="M145.728 89 226.072 89 226.072 147.811 302 147.811 302 175 286.757 175 286.853 174.047C286.853 162.936 277.871 153.929 266.791 153.929 255.711 153.929 246.73 162.936 246.73 174.047L246.825 175 185.915 175 186.01 174.047C186.01 162.936 177.029 153.929 165.949 153.929 154.869 153.929 145.887 162.936 145.887 174.047L145.983 175 139 175 139 122.734 139 95.747 139 94.8375 139.183 94.8375 139.529 93.1208C140.55 90.6992 142.941 89 145.728 89Z" fill-rule="evenodd"/><path d="M0 0 10.9022 0 11 0.89189C11 6.47445 6.07514 11 0 11Z" fill="#FFFFFF" fill-rule="evenodd" transform="matrix(-1 0 0 1 298 150)"/><path d="M147.5 101.667C147.5 98.8133 149.813 96.5001 152.667 96.5001L173.333 96.5001C176.187 96.5001 178.5 98.8133 178.5 101.667L178.5 137.333C178.5 140.187 176.187 142.5 173.333 142.5L152.667 142.5C149.813 142.5 147.5 140.187 147.5 137.333Z" stroke="#FFFFFF" stroke-width="3" stroke-miterlimit="8" fill-rule="evenodd"/><path d="M172 114C172.552 114 173 114.448 173 115L173 123C173 123.552 172.552 124 172 124L168 124C167.448 124 167 123.552 167 123L167 115C167 114.448 167.448 114 168 114Z" fill="#FFFFFF" fill-rule="evenodd"/><path d="M188.5 101.667C188.5 98.8133 190.813 96.5001 193.667 96.5001L214.333 96.5001C217.187 96.5001 219.5 98.8133 219.5 101.667L219.5 137.333C219.5 140.187 217.187 142.5 214.333 142.5L193.667 142.5C190.813 142.5 188.5 140.187 188.5 137.333Z" stroke="#FFFFFF" stroke-width="3" stroke-miterlimit="8" fill-rule="evenodd"/><path d="M214 114C214.552 114 215 114.448 215 115L215 123C215 123.552 214.552 124 214 124L210 124C209.448 124 209 123.552 209 123L209 115C209 114.448 209.448 114 210 114Z" fill="#FFFFFF" fill-rule="evenodd"/><text font-family="Arial,Arial_MSFontService,sans-serif" font-weight="700" font-size="26.6667" transform="translate(95.7969 45)">Mixed</text><text font-family="Arial,Arial_MSFontService,sans-serif" font-weight="700" font-size="26.6667" transform="translate(171.297 45)">-</text><text font-family="Arial,Arial_MSFontService,sans-serif" font-weight="700" font-size="26.6667" transform="translate(180.13 45)">purpose SAV</text><text font-family="Arial,Arial_MSFontService,sans-serif" font-weight="400" font-size="26.6667" transform="translate(176.39 76)">[5</text><text fill="#7F7F7F" font-family="Arial,Arial_MSFontService,sans-serif" font-weight="400" font-size="26.6667" transform="translate(198.557 76)">X</text><text font-family="Arial,Arial_MSFontService,sans-serif" font-weight="400" font-size="26.6667" transform="translate(216.39 76)">-</text><text font-family="Arial,Arial_MSFontService,sans-serif" font-weight="400" font-size="26.6667" transform="translate(225.224 76)">5</text><text fill="#7F7F7F" font-family="Arial,Arial_MSFontService,sans-serif" font-weight="400" font-size="26.6667" transform="translate(240.057 76)">A</text><text font-family="Arial,Arial_MSFontService,sans-serif" font-weight="400" font-size="26.6667" transform="translate(257.89 76)">]</text><path d="M132.5 174.5C132.5 171.739 134.739 169.5 137.5 169.5L302.5 169.5C305.262 169.5 307.5 171.739 307.5 174.5L307.5 174.5C307.5 177.262 305.261 179.5 302.5 179.5L137.5 179.5C134.739 179.5 132.5 177.261 132.5 174.5Z" stroke="#FFFFFF" stroke-width="3" stroke-miterlimit="8" fill-rule="evenodd"/><path d="M244 174C244 164.611 251.611 157 261 157 270.389 157 278 164.611 278 174 278 183.389 270.389 191 261 191 251.611 191 244 183.389 244 174Z" fill="#666666" fill-rule="evenodd"/><path d="M253 174C253 170.134 256.358 167 260.5 167 264.642 167 268 170.134 268 174 268 177.866 264.642 181 260.5 181 256.358 181 253 177.866 253 174Z" fill="#E6E6E6" fill-rule="evenodd"/><path d="M244 174C244 164.611 251.611 157 261 157 270.389 157 278 164.611 278 174 278 183.389 270.389 191 261 191 251.611 191 244 183.389 244 174Z" fill="#666666" fill-rule="evenodd"/><path d="M253 174C253 170.134 256.358 167 260.5 167 264.642 167 268 170.134 268 174 268 177.866 264.642 181 260.5 181 256.358 181 253 177.866 253 174Z" fill="#E6E6E6" fill-rule="evenodd"/><path d="M243.5 174.5C243.5 165.111 251.335 157.5 261 157.5 270.665 157.5 278.5 165.111 278.5 174.5 278.5 183.889 270.665 191.5 261 191.5 251.335 191.5 243.5 183.889 243.5 174.5Z" stroke="#FFFFFF" stroke-width="3" stroke-miterlimit="8" fill-rule="evenodd"/><path d="M256 174C256 171.239 258.015 169 260.5 169 262.985 169 265 171.239 265 174 265 176.761 262.985 179 260.5 179 258.015 179 256 176.761 256 174Z" fill="#FFFFFF" fill-rule="evenodd"/><path d="M152 174C152 164.611 159.387 157 168.5 157 177.613 157 185 164.611 185 174 185 183.389 177.613 191 168.5 191 159.387 191 152 183.389 152 174Z" fill="#666666" fill-rule="evenodd"/><path d="M161 174C161 170.134 164.358 167 168.5 167 172.642 167 176 170.134 176 174 176 177.866 172.642 181 168.5 181 164.358 181 161 177.866 161 174Z" fill="#E6E6E6" fill-rule="evenodd"/><path d="M152 174C152 164.611 159.387 157 168.5 157 177.613 157 185 164.611 185 174 185 183.389 177.613 191 168.5 191 159.387 191 152 183.389 152 174Z" fill="#666666" fill-rule="evenodd"/><path d="M161 174C161 170.134 164.358 167 168.5 167 172.642 167 176 170.134 176 174 176 177.866 172.642 181 168.5 181 164.358 181 161 177.866 161 174Z" fill="#E6E6E6" fill-rule="evenodd"/><path d="M151.5 174.5C151.5 165.111 159.335 157.5 169 157.5 178.665 157.5 186.5 165.111 186.5 174.5 186.5 183.889 178.665 191.5 169 191.5 159.335 191.5 151.5 183.889 151.5 174.5Z" stroke="#FFFFFF" stroke-width="3" stroke-miterlimit="8" fill-rule="evenodd"/><path d="M164 174C164 171.239 166.015 169 168.5 169 170.985 169 173 171.239 173 174 173 176.761 170.985 179 168.5 179 166.015 179 164 176.761 164 174Z" fill="#FFFFFF" fill-rule="evenodd"/><path d="M148 107.333C148 107.702 147.702 108 147.333 108L143.667 108C143.298 108 143 107.702 143 107.333L143 104.667C143 104.298 143.298 104 143.667 104L147.333 104C147.702 104 148 104.298 148 104.667Z" fill="#FFFFFF" fill-rule="evenodd"/><path d="M148 133.167C148 133.627 147.627 134 147.167 134L143.833 134C143.373 134 143 133.627 143 133.167L143 129.833C143 129.373 143.373 129 143.833 129L147.167 129C147.627 129 148 129.373 148 129.833Z" fill="#FFFFFF" fill-rule="evenodd"/><path d="M189 107.333C189 107.702 188.702 108 188.333 108L184.667 108C184.298 108 184 107.702 184 107.333L184 104.667C184 104.298 184.298 104 184.667 104L188.333 104C188.702 104 189 104.298 189 104.667Z" fill="#FFFFFF" fill-rule="evenodd"/><path d="M189 133.167C189 133.627 188.627 134 188.167 134L184.833 134C184.373 134 184 133.627 184 133.167L184 129.833C184 129.373 184.373 129 184.833 129L188.167 129C188.627 129 189 129.373 189 129.833Z" fill="#FFFFFF" fill-rule="evenodd"/><path d="M0 0 115.397 102.045" stroke="#000000" stroke-width="2" stroke-miterlimit="8" fill="none" fill-rule="evenodd" transform="matrix(1 0 0 -1 89 278.045)"/><path d="M89 278 208.469 344.933" stroke="#000000" stroke-width="2" stroke-miterlimit="8" fill="none" fill-rule="evenodd"/><path d="M0 0 22.5111 201.168" stroke="#000000" stroke-width="2" stroke-miterlimit="8" fill="none" fill-rule="evenodd" transform="matrix(-1 0 0 1 217.511 349)"/><path d="M0 0 136.104 138.084" stroke="#000000" stroke-width="2" stroke-miterlimit="8" fill="none" fill-rule="evenodd" transform="matrix(-1 0 0 1 342.104 403)"/><path d="M0 0 59.0066 200.522" stroke="#000000" stroke-width="2" stroke-miterlimit="8" fill="none" fill-rule="evenodd" transform="matrix(-1 0 0 1 403.007 198)"/><path d="M0 0 117.986 39.128" stroke="#000000" stroke-width="2" stroke-miterlimit="8" fill="none" fill-rule="evenodd" transform="matrix(-1 0 0 1 553.986 146)"/><path d="M0 0 108.424 97.5214" stroke="#000000" stroke-width="2" stroke-miterlimit="8" fill="none" fill-rule="evenodd" transform="matrix(-1 0 0 1 586.424 323)"/><path d="M304 578 461.113 589.2" stroke="#000000" stroke-width="2" stroke-miterlimit="8" fill="none" fill-rule="evenodd"/><path d="M652 170 652 497.275" stroke="#000000" stroke-width="2" stroke-miterlimit="8" fill="none" fill-rule="evenodd"/></g></svg>